<?xml version="1.0" encoding="UTF-8" standalone="no"?><!DOCTYPE svg PUBLIC "-//W3C//DTD SVG 1.1//EN" "http://www.w3.org/Graphics/SVG/1.1/DTD/svg11.dtd"><svg width="100%" height="100%" viewBox="0 0 65 65" version="1.1" xmlns="http://www.w3.org/2000/svg" xmlns:xlink="http://www.w3.org/1999/xlink" xml:space="preserve" xmlns:serif="http://www.serif.com/" style="fill-rule:evenodd;clip-rule:evenodd;stroke-linejoin:round;stroke-miterlimit:2;"><rect id="Dribbble---Black" serif:id="Dribbble - Black" x="0.182" y="0.076" width="64" height="64" style="fill:none;"/><path d="M59.598,32.076c0,15.14 -12.275,27.416 -27.416,27.416c-15.14,-0 -27.416,-12.276 -27.416,-27.416c0,-15.144 12.276,-27.416 27.416,-27.416c15.141,-0 27.416,12.272 27.416,27.416" style="fill:none;fill-rule:nonzero;stroke:#000;stroke-width:2px;"/><path d="M57.885,32.076c-0,14.193 -11.506,25.702 -25.703,25.702c-14.193,0 -25.702,-11.509 -25.702,-25.702c-0,-14.196 11.509,-25.703 25.702,-25.703c14.197,0 25.703,11.507 25.703,25.703" style="fill:none;fill-rule:nonzero;"/><path d="M43.514,22.842c-0.308,0.418 -2.76,3.563 -8.173,5.771c0.342,0.698 0.67,1.405 0.971,2.12c0.107,0.254 0.211,0.505 0.314,0.756c4.873,-0.614 9.709,0.37 10.195,0.471c-0.034,-3.453 -1.27,-6.626 -3.307,-9.118m-14.758,-4.972c0.404,0.541 3.062,4.162 5.457,8.567c5.208,-1.948 7.409,-4.911 7.675,-5.286c-2.587,-2.294 -5.983,-3.689 -9.705,-3.689c-1.183,-0 -2.327,0.14 -3.427,0.408m-10.898,11.23c0.653,0.01 6.684,0.034 13.531,-1.782c-2.422,-4.311 -5.044,-7.937 -5.428,-8.465c-4.097,1.931 -7.152,5.706 -8.103,10.247m3.451,12.783c0.334,-0.567 4.351,-7.218 11.897,-9.656c0.195,-0.065 0.385,-0.122 0.579,-0.175c-0.368,-0.831 -0.769,-1.665 -1.188,-2.484c-7.309,2.186 -14.4,2.095 -15.039,2.085c-0.003,0.149 -0.01,0.293 -0.01,0.446c-0,3.759 1.425,7.191 3.761,9.784m16.593,3.691c-0.217,-1.286 -1.067,-5.763 -3.123,-11.102c-0.033,0.012 -0.067,0.024 -0.096,0.032c-8.258,2.877 -11.218,8.6 -11.482,9.142c2.479,1.934 5.601,3.088 8.982,3.088c2.027,-0 3.961,-0.415 5.719,-1.16m8.734,-11.152c-0.502,-0.158 -4.53,-1.36 -9.119,-0.625c1.914,5.26 2.694,9.544 2.844,10.431c3.283,-2.217 5.622,-5.733 6.275,-9.806m-14.453,14.789c-9.448,0 -17.135,-7.686 -17.135,-17.135c-0,-9.448 7.687,-17.135 17.135,-17.135c9.45,0 17.135,7.687 17.135,17.135c-0,9.449 -7.685,17.135 -17.135,17.135" style="fill-rule:nonzero;"/></svg>