<?xml version="1.0" encoding="UTF-8" standalone="no"?><!DOCTYPE svg PUBLIC "-//W3C//DTD SVG 1.1//EN" "http://www.w3.org/Graphics/SVG/1.1/DTD/svg11.dtd"><svg width="100%" height="100%" viewBox="0 0 65 65" version="1.1" xmlns="http://www.w3.org/2000/svg" xmlns:xlink="http://www.w3.org/1999/xlink" xml:space="preserve" xmlns:serif="http://www.serif.com/" style="fill-rule:evenodd;clip-rule:evenodd;stroke-linejoin:round;stroke-miterlimit:2;"><rect id="Linked-In-Icon---Black" serif:id="Linked In Icon - Black" x="0.028" y="0.118" width="64" height="64" style="fill:none;"/><g><path d="M17.034,12.969c-2.674,0 -4.426,1.805 -4.426,4.153c0,2.293 1.692,4.151 4.316,4.151c2.786,-0 4.478,-1.858 4.478,-4.151c-0.052,-2.348 -1.692,-4.153 -4.368,-4.153Z" style="fill-rule:nonzero;"/><path d="M41.889,23.954c-4.481,-0 -7.157,2.566 -8.246,4.316l-0.167,-0l-0.386,-3.718l-7.209,0c0.11,2.403 0.22,5.19 0.22,8.524l-0,18.191l8.303,0l0,-15.405c0,-0.764 0.053,-1.532 0.273,-2.075c0.601,-1.53 1.965,-3.117 4.259,-3.117c3.004,0 4.208,2.353 4.208,5.793l-0,14.804l8.303,0l0,-15.788c0,-7.865 -4.098,-11.525 -9.558,-11.525Z" style="fill-rule:nonzero;"/><rect x="12.828" y="24.552" width="8.303" height="26.713" style="fill-rule:nonzero;"/></g></svg>